<svg width="239" height="213" viewBox="0 0 239 213" fill="none" xmlns="http://www.w3.org/2000/svg">
<path d="M203 30V86.8643C203 100.962 191.247 113.262 174.689 116.112L173.897 116.241L171.301 116.637C176.598 109.257 178.4 101.289 178.4 91.8936V30H203Z" fill="#D9D9D9" fill-opacity="0.25" stroke="#E9F1F9" style="fill:#D9D9D9;fill:color(display-p3 0.8510 0.8510 0.8510);fill-opacity:0.25;stroke:#E9F1F9;stroke:color(display-p3 0.9137 0.9451 0.9765);stroke-opacity:1;" stroke-width="2"/>
<path d="M70.6982 96.3623C65.4012 103.742 63.5996 111.711 63.5996 121.106V183H39V126.136L39.0088 125.466C39.3742 111.65 51.0161 99.6932 67.3105 96.8877L68.1025 96.7588L70.6982 96.3623Z" fill="#D9D9D9" fill-opacity="0.25" stroke="#E9F1F9" style="fill:#D9D9D9;fill:color(display-p3 0.8510 0.8510 0.8510);fill-opacity:0.25;stroke:#E9F1F9;stroke:color(display-p3 0.9137 0.9451 0.9765);stroke-opacity:1;" stroke-width="2"/>
<path d="M133.484 117V145.132C133.484 159.087 121.581 171.29 104.774 174.12L103.971 174.247L101.331 174.641C106.691 167.328 108.516 159.429 108.516 150.118V117H133.484ZM140.668 37.3584C135.308 44.6711 133.484 52.5712 133.484 61.8828V115H108.516V66.8682C108.516 52.9132 120.419 40.7098 137.226 37.8799L138.029 37.7529L140.668 37.3584Z" fill="url(#paint0_linear_244_164)" stroke="#E9F1F9" style="stroke:#E9F1F9;stroke:color(display-p3 0.9137 0.9451 0.9765);stroke-opacity:1;" stroke-width="2"/>
<path opacity="0.5" d="M69.9619 150.399C70.4374 150.072 71.1233 150.116 71.5361 150.468L71.6152 150.542L82.8438 162.333C84.1537 163.708 83.9647 165.702 82.4141 166.884L82.2607 166.995C80.6008 168.138 78.1864 167.957 76.7861 166.631L76.6543 166.499L65.4258 154.709C65.0737 154.339 65.1031 153.811 65.5078 153.472L65.5938 153.406L69.9619 150.399ZM60.7041 109.333C62.3637 108.19 64.7774 108.371 66.1777 109.697L66.3105 109.829L88.6934 133.331C89.0452 133.701 89.0149 134.228 88.6104 134.567L88.5244 134.633L84.1572 137.641C83.6819 137.968 82.9949 137.924 82.582 137.572L82.5039 137.498L71.3125 125.746L60.1201 113.995C58.7684 112.576 59.0136 110.497 60.7041 109.333ZM87.4043 104.555C89.0639 103.412 91.4777 103.593 92.8779 104.919L93.0098 105.051L104.977 117.616C105.329 117.986 105.299 118.514 104.895 118.854L104.809 118.918L100.44 121.926C99.9654 122.253 99.2795 122.209 98.8662 121.857L98.7871 121.783L86.8203 109.218V109.217C85.4683 107.797 85.7135 105.719 87.4043 104.555ZM138.821 91.8486C139.297 91.5214 139.984 91.5658 140.396 91.918L140.476 91.9922L151.704 103.782C153.014 105.158 152.825 107.152 151.274 108.334L151.12 108.445C149.461 109.588 147.047 109.407 145.646 108.081L145.515 107.949L134.285 96.1592C133.933 95.7893 133.963 95.2612 134.368 94.9219L134.454 94.8574V94.8564L138.822 91.8496L138.821 91.8486ZM159.077 76.501C159.552 76.1737 160.239 76.2177 160.652 76.5703L160.73 76.6445L181.879 98.8506C183.189 100.226 183.001 102.22 181.45 103.401L181.295 103.513C179.635 104.655 177.223 104.474 175.822 103.148L175.689 103.017L154.541 80.8105C154.189 80.4412 154.219 79.9137 154.623 79.5742L154.709 79.5088L159.077 76.501ZM157.669 46.0049C159.329 44.8621 161.743 45.043 163.144 46.3691L163.275 46.501L175.242 59.0664C175.594 59.4359 175.565 59.9632 175.16 60.3027L175.074 60.3682L170.706 63.376C170.231 63.703 169.545 63.6596 169.132 63.3076L169.053 63.2324L157.086 50.668C155.776 49.2926 155.964 47.298 157.515 46.1162L157.669 46.0049Z" stroke="white" style="stroke:white;stroke-opacity:1;" stroke-width="0.5"/>
<g opacity="0.5" filter="url(#filter0_d_244_164)">
<path d="M170.252 65.4462C169.763 64.9348 169.856 64.1844 170.46 63.77L174.834 60.7704C175.439 60.3562 176.325 60.4351 176.814 60.9467L188.059 72.7066C189.526 74.2409 189.247 76.4921 187.435 77.7346C185.623 78.9772 182.965 78.7407 181.497 77.2064L170.252 65.4462Z" fill="white" fill-opacity="0.25" style="fill:white;fill-opacity:0.25;" shape-rendering="crispEdges"/>
<path d="M50.9409 140.447C49.4737 138.912 49.7531 136.661 51.565 135.419C53.3769 134.176 56.0352 134.413 57.5025 135.947L69.4874 148.481C69.9763 148.992 69.8834 149.742 69.2792 150.156L64.9049 153.156C64.3009 153.571 63.4148 153.491 62.9257 152.98L50.9409 140.447Z" fill="white" fill-opacity="0.25" style="fill:white;fill-opacity:0.25;" shape-rendering="crispEdges"/>
<path d="M83.5758 139.526C83.0864 139.014 83.1797 138.264 83.7836 137.849L88.1581 134.85C88.7619 134.435 89.648 134.514 90.1373 135.026L111.317 157.175C112.784 158.71 112.505 160.961 110.693 162.203C108.881 163.446 106.223 163.209 104.755 161.675L94.1656 150.6L83.5758 139.526Z" fill="white" fill-opacity="0.25" style="fill:white;fill-opacity:0.25;" shape-rendering="crispEdges"/>
<path d="M129.756 55.825C128.289 54.2905 128.568 52.0394 130.381 50.7968C132.192 49.5543 134.851 49.7909 136.318 51.3253L158.734 74.7671C159.223 75.2785 159.13 76.0289 158.526 76.4433L154.151 79.4429C153.548 79.857 152.662 79.7783 152.173 79.2666L140.965 67.5458L129.756 55.825Z" fill="white" fill-opacity="0.25" style="fill:white;fill-opacity:0.25;" shape-rendering="crispEdges"/>
<path d="M99.8831 123.846C99.3938 123.335 99.4871 122.584 100.091 122.17L104.465 119.17C105.069 118.756 105.955 118.835 106.445 119.347L117.69 131.107C119.157 132.641 118.878 134.892 117.066 136.135C115.254 137.377 112.596 137.141 111.128 135.606L99.8831 123.846Z" fill="white" fill-opacity="0.25" style="fill:white;fill-opacity:0.25;" shape-rendering="crispEdges"/>
<path d="M119.903 82.0467C118.436 80.5124 118.715 78.2612 120.527 77.0187C122.339 75.7761 124.997 76.0126 126.464 77.5473L138.449 90.0803C138.938 90.592 138.845 91.3424 138.241 91.7564L133.867 94.7561C133.263 95.1705 132.376 95.0915 131.887 94.5801L119.903 82.0467Z" fill="white" fill-opacity="0.25" style="fill:white;fill-opacity:0.25;" shape-rendering="crispEdges"/>
</g>
<path d="M194.739 47.9305C194.739 49.8906 192.853 51.4796 190.526 51.4796C188.199 51.4796 186.313 49.8906 186.313 47.9305C186.313 45.9704 188.199 44.3814 190.526 44.3814C192.853 44.3814 194.739 45.9704 194.739 47.9305Z" fill="#262626" style="fill:#262626;fill:color(display-p3 0.1473 0.1473 0.1473);fill-opacity:1;"/>
<path d="M54.2812 165.068C54.2812 167.028 52.395 168.618 50.0681 168.618C47.7412 168.618 45.8549 167.028 45.8549 165.068C45.8549 163.108 47.7412 161.519 50.0681 161.519C52.395 161.519 54.2812 163.108 54.2812 165.068Z" fill="#262626" style="fill:#262626;fill:color(display-p3 0.1473 0.1473 0.1473);fill-opacity:1;"/>
<path d="M133.432 151.587C130.301 166.24 115.164 176.901 97.4906 176.901H29V154.42H103.443C115.382 154.42 125.214 152.645 134.344 147.321L133.432 151.587Z" fill="url(#paint1_linear_244_164)" style=""/>
<path d="M108.568 61.4126C111.699 46.7602 126.836 36.0991 144.51 36.0991H213V58.5801H138.557C126.618 58.5801 116.786 60.3549 107.656 65.6793L108.568 61.4126Z" fill="url(#paint2_linear_244_164)" style=""/>
<path d="M124.51 107.091C124.51 109.051 122.624 110.64 120.297 110.64C117.97 110.64 116.084 109.051 116.084 107.091C116.084 105.131 117.97 103.542 120.297 103.542C122.624 103.542 124.51 105.131 124.51 107.091Z" fill="#989898" style="fill:#989898;fill:color(display-p3 0.5949 0.5949 0.5949);fill-opacity:1;"/>
<path fill-rule="evenodd" clip-rule="evenodd" d="M167.719 117.74C185.393 117.74 200.53 107.079 203.661 92.4265L204.573 88.1598C195.443 93.4844 185.611 95.2592 173.672 95.2592H141.366H109.061V117.74H167.719ZM74.2804 95.2592C56.607 95.2592 41.4698 105.92 38.3388 120.573L37.4272 124.839C46.557 119.515 56.3891 117.74 68.328 117.74H109.061V95.2592H74.2804Z" fill="#E9F1F9" style="fill:#E9F1F9;fill:color(display-p3 0.9137 0.9451 0.9765);fill-opacity:1;"/>
<defs>
<filter id="filter0_d_244_164" x="0" y="0" width="239" height="213" filterUnits="userSpaceOnUse" color-interpolation-filters="sRGB">
<feFlood flood-opacity="0" result="BackgroundImageFix"/>
<feColorMatrix in="SourceAlpha" type="matrix" values="0 0 0 0 0 0 0 0 0 0 0 0 0 0 0 0 0 0 127 0" result="hardAlpha"/>
<feOffset/>
<feGaussianBlur stdDeviation="25"/>
<feComposite in2="hardAlpha" operator="out"/>
<feColorMatrix type="matrix" values="0 0 0 0 0 0 0 0 0 0 0 0 0 0 0 0 0 0 0.15 0"/>
<feBlend mode="normal" in2="BackgroundImageFix" result="effect1_dropShadow_244_164"/>
<feBlend mode="normal" in="SourceGraphic" in2="effect1_dropShadow_244_164" result="shape"/>
</filter>
<linearGradient id="paint0_linear_244_164" x1="139.905" y1="221.871" x2="70.6751" y2="197.997" gradientUnits="userSpaceOnUse">
<stop stop-color="white" stop-opacity="0.55" style="stop-color:white;stop-opacity:0.55;"/>
<stop offset="0.274021" stop-color="white" stop-opacity="0.55" style="stop-color:white;stop-opacity:0.55;"/>
</linearGradient>
<linearGradient id="paint1_linear_244_164" x1="62.0625" y1="24.7617" x2="201.026" y2="207.821" gradientUnits="userSpaceOnUse">
<stop offset="0.14737" stop-color="#E9F1F9" style="stop-color:#E9F1F9;stop-color:color(display-p3 0.9137 0.9451 0.9765);stop-opacity:1;"/>
<stop offset="0.74197" stop-color="#B7B9CD" stop-opacity="0.85" style="stop-color:#B7B9CD;stop-color:color(display-p3 0.7170 0.7249 0.8042);stop-opacity:0.85;"/>
<stop offset="1" stop-color="#97979D" stop-opacity="0.85" style="stop-color:#97979D;stop-color:color(display-p3 0.5932 0.5932 0.6149);stop-opacity:0.85;"/>
</linearGradient>
<linearGradient id="paint2_linear_244_164" x1="62.0625" y1="24.7617" x2="201.026" y2="207.821" gradientUnits="userSpaceOnUse">
<stop offset="0.14737" stop-color="#E9F1F9" style="stop-color:#E9F1F9;stop-color:color(display-p3 0.9137 0.9451 0.9765);stop-opacity:1;"/>
<stop offset="0.74197" stop-color="#B7B9CD" stop-opacity="0.85" style="stop-color:#B7B9CD;stop-color:color(display-p3 0.7170 0.7249 0.8042);stop-opacity:0.85;"/>
<stop offset="1" stop-color="#97979D" stop-opacity="0.85" style="stop-color:#97979D;stop-color:color(display-p3 0.5932 0.5932 0.6149);stop-opacity:0.85;"/>
</linearGradient>
</defs>
</svg>
